<mxfile host="app.diagrams.net" modified="2023-02-14T08:18:05.317Z" agent="5.0 (Windows NT 10.0; Win64; x64) AppleWebKit/537.36 (KHTML, like Gecko) Chrome/110.0.0.0 Safari/537.36 Edg/110.0.1587.41" etag="mM5-JjGZL8hk8ebI28Hp" version="20.8.20" type="github">
  <diagram id="C5RBs43oDa-KdzZeNtuy" name="Page-1">
    <mxGraphModel dx="2456" dy="2052" grid="1" gridSize="10" guides="1" tooltips="1" connect="1" arrows="1" fold="1" page="1" pageScale="1" pageWidth="827" pageHeight="1169" math="0" shadow="0">
      <root>
        <mxCell id="WIyWlLk6GJQsqaUBKTNV-0" />
        <mxCell id="WIyWlLk6GJQsqaUBKTNV-1" parent="WIyWlLk6GJQsqaUBKTNV-0" />
        <mxCell id="frL50fu5-paKjQ-43x_j-62" value="" style="ellipse;whiteSpace=wrap;html=1;strokeWidth=3;fillStyle=dots;dashed=1;fillColor=none;" vertex="1" parent="WIyWlLk6GJQsqaUBKTNV-1">
          <mxGeometry x="-80" y="50" width="840" height="620" as="geometry" />
        </mxCell>
        <mxCell id="frL50fu5-paKjQ-43x_j-0" value="DataBase" style="shape=cylinder3;whiteSpace=wrap;html=1;boundedLbl=1;backgroundOutline=1;size=15;" vertex="1" parent="WIyWlLk6GJQsqaUBKTNV-1">
          <mxGeometry x="260" y="290" width="154" height="100" as="geometry" />
        </mxCell>
        <mxCell id="frL50fu5-paKjQ-43x_j-3" value="Household Info Enter Form" style="rounded=0;whiteSpace=wrap;html=1;fillColor=#99CCFF;strokeColor=#6c8ebf;" vertex="1" parent="WIyWlLk6GJQsqaUBKTNV-1">
          <mxGeometry x="240" y="-70" width="120" height="60" as="geometry" />
        </mxCell>
        <mxCell id="frL50fu5-paKjQ-43x_j-4" value="Insert Household" style="ellipse;whiteSpace=wrap;html=1;strokeColor=#99CCFF;strokeWidth=3;" vertex="1" parent="WIyWlLk6GJQsqaUBKTNV-1">
          <mxGeometry x="240" y="130" width="110" height="60" as="geometry" />
        </mxCell>
        <mxCell id="frL50fu5-paKjQ-43x_j-7" value="Appliance Add Form" style="rounded=0;whiteSpace=wrap;html=1;fillColor=#99CCFF;strokeColor=#6c8ebf;" vertex="1" parent="WIyWlLk6GJQsqaUBKTNV-1">
          <mxGeometry x="500" y="-30" width="120" height="60" as="geometry" />
        </mxCell>
        <mxCell id="frL50fu5-paKjQ-43x_j-8" value="Add Appliance" style="ellipse;whiteSpace=wrap;html=1;strokeColor=#99CCFF;strokeWidth=3;" vertex="1" parent="WIyWlLk6GJQsqaUBKTNV-1">
          <mxGeometry x="397" y="130" width="110" height="60" as="geometry" />
        </mxCell>
        <mxCell id="frL50fu5-paKjQ-43x_j-12" value="Appliance List" style="rounded=0;whiteSpace=wrap;html=1;fillColor=#99CCFF;strokeColor=#6c8ebf;" vertex="1" parent="WIyWlLk6GJQsqaUBKTNV-1">
          <mxGeometry x="730" y="60" width="120" height="60" as="geometry" />
        </mxCell>
        <mxCell id="frL50fu5-paKjQ-43x_j-13" value="View Appliance" style="ellipse;whiteSpace=wrap;html=1;strokeColor=#99CCFF;strokeWidth=3;" vertex="1" parent="WIyWlLk6GJQsqaUBKTNV-1">
          <mxGeometry x="540" y="180" width="110" height="60" as="geometry" />
        </mxCell>
        <mxCell id="frL50fu5-paKjQ-43x_j-17" value="Power Generation Add Form" style="rounded=0;whiteSpace=wrap;html=1;fillColor=#99CCFF;strokeColor=#6c8ebf;" vertex="1" parent="WIyWlLk6GJQsqaUBKTNV-1">
          <mxGeometry x="840" y="250" width="120" height="60" as="geometry" />
        </mxCell>
        <mxCell id="frL50fu5-paKjQ-43x_j-18" value="Add Power Generation" style="ellipse;whiteSpace=wrap;html=1;strokeColor=#99CCFF;strokeWidth=3;" vertex="1" parent="WIyWlLk6GJQsqaUBKTNV-1">
          <mxGeometry x="580" y="290" width="110" height="60" as="geometry" />
        </mxCell>
        <mxCell id="frL50fu5-paKjQ-43x_j-25" value="Power Generation List" style="rounded=0;whiteSpace=wrap;html=1;fillColor=#99CCFF;strokeColor=#6c8ebf;" vertex="1" parent="WIyWlLk6GJQsqaUBKTNV-1">
          <mxGeometry x="860" y="430" width="120" height="60" as="geometry" />
        </mxCell>
        <mxCell id="frL50fu5-paKjQ-43x_j-26" value="View Power Generation" style="ellipse;whiteSpace=wrap;html=1;strokeColor=#99CCFF;strokeWidth=3;" vertex="1" parent="WIyWlLk6GJQsqaUBKTNV-1">
          <mxGeometry x="600" y="400" width="110" height="60" as="geometry" />
        </mxCell>
        <mxCell id="frL50fu5-paKjQ-43x_j-29" value="List Top 25 Popular Manufacturers" style="ellipse;whiteSpace=wrap;html=1;strokeColor=#99CCFF;strokeWidth=3;" vertex="1" parent="WIyWlLk6GJQsqaUBKTNV-1">
          <mxGeometry x="480" y="490" width="120" height="70" as="geometry" />
        </mxCell>
        <mxCell id="frL50fu5-paKjQ-43x_j-30" value="Top 25 Popular Manufacturers" style="rounded=0;whiteSpace=wrap;html=1;fillColor=#99CCFF;strokeColor=#6c8ebf;" vertex="1" parent="WIyWlLk6GJQsqaUBKTNV-1">
          <mxGeometry x="700" y="610" width="120" height="60" as="geometry" />
        </mxCell>
        <mxCell id="frL50fu5-paKjQ-43x_j-31" value="" style="endArrow=classic;html=1;rounded=0;fillColor=#ffe6cc;strokeColor=#d79b00;strokeWidth=2;exitX=0.974;exitY=0.875;exitDx=0;exitDy=0;exitPerimeter=0;" edge="1" parent="WIyWlLk6GJQsqaUBKTNV-1" target="frL50fu5-paKjQ-43x_j-29">
          <mxGeometry width="50" height="50" relative="1" as="geometry">
            <mxPoint x="367" y="390" as="sourcePoint" />
            <mxPoint x="500" y="451" as="targetPoint" />
          </mxGeometry>
        </mxCell>
        <mxCell id="frL50fu5-paKjQ-43x_j-35" value="Manufacture/Model Search and Results" style="rounded=0;whiteSpace=wrap;html=1;fillColor=#99CCFF;strokeColor=#6c8ebf;" vertex="1" parent="WIyWlLk6GJQsqaUBKTNV-1">
          <mxGeometry x="440" y="730" width="120" height="60" as="geometry" />
        </mxCell>
        <mxCell id="frL50fu5-paKjQ-43x_j-36" value="Manufacture/Model Search" style="ellipse;whiteSpace=wrap;html=1;strokeColor=#99CCFF;strokeWidth=3;" vertex="1" parent="WIyWlLk6GJQsqaUBKTNV-1">
          <mxGeometry x="330" y="540" width="120" height="70" as="geometry" />
        </mxCell>
        <mxCell id="frL50fu5-paKjQ-43x_j-37" value="" style="endArrow=classic;html=1;rounded=0;fillColor=#ffe6cc;strokeColor=#d79b00;strokeWidth=2;" edge="1" parent="WIyWlLk6GJQsqaUBKTNV-1" source="frL50fu5-paKjQ-43x_j-0" target="frL50fu5-paKjQ-43x_j-36">
          <mxGeometry width="50" height="50" relative="1" as="geometry">
            <mxPoint x="150" y="380" as="sourcePoint" />
            <mxPoint x="221" y="483" as="targetPoint" />
          </mxGeometry>
        </mxCell>
        <mxCell id="frL50fu5-paKjQ-43x_j-38" value="" style="endArrow=classic;startArrow=classic;html=1;rounded=0;strokeWidth=2;strokeColor=#d79b00;fillColor=#ffe6cc;" edge="1" parent="WIyWlLk6GJQsqaUBKTNV-1" source="frL50fu5-paKjQ-43x_j-35" target="frL50fu5-paKjQ-43x_j-36">
          <mxGeometry width="50" height="50" relative="1" as="geometry">
            <mxPoint x="180" y="630" as="sourcePoint" />
            <mxPoint x="230" y="580" as="targetPoint" />
          </mxGeometry>
        </mxCell>
        <mxCell id="frL50fu5-paKjQ-43x_j-39" value="Heating/Cooling Method Details" style="rounded=0;whiteSpace=wrap;html=1;fillColor=#99CCFF;strokeColor=#6c8ebf;" vertex="1" parent="WIyWlLk6GJQsqaUBKTNV-1">
          <mxGeometry x="90" y="730" width="120" height="60" as="geometry" />
        </mxCell>
        <mxCell id="frL50fu5-paKjQ-43x_j-40" value="Heating/Cooling Methods Search" style="ellipse;whiteSpace=wrap;html=1;strokeColor=#99CCFF;strokeWidth=3;" vertex="1" parent="WIyWlLk6GJQsqaUBKTNV-1">
          <mxGeometry x="160" y="530" width="120" height="70" as="geometry" />
        </mxCell>
        <mxCell id="frL50fu5-paKjQ-43x_j-41" value="" style="endArrow=classic;html=1;rounded=0;fillColor=#ffe6cc;strokeColor=#d79b00;strokeWidth=2;" edge="1" parent="WIyWlLk6GJQsqaUBKTNV-1" source="frL50fu5-paKjQ-43x_j-0" target="frL50fu5-paKjQ-43x_j-40">
          <mxGeometry width="50" height="50" relative="1" as="geometry">
            <mxPoint x="165" y="390" as="sourcePoint" />
            <mxPoint x="150" y="480" as="targetPoint" />
          </mxGeometry>
        </mxCell>
        <mxCell id="frL50fu5-paKjQ-43x_j-42" value="" style="endArrow=classic;html=1;rounded=0;fillColor=#ffe6cc;strokeColor=#d79b00;strokeWidth=2;" edge="1" parent="WIyWlLk6GJQsqaUBKTNV-1" source="frL50fu5-paKjQ-43x_j-40" target="frL50fu5-paKjQ-43x_j-39">
          <mxGeometry width="50" height="50" relative="1" as="geometry">
            <mxPoint x="169.5" y="500" as="sourcePoint" />
            <mxPoint x="70.5" y="577" as="targetPoint" />
          </mxGeometry>
        </mxCell>
        <mxCell id="frL50fu5-paKjQ-43x_j-43" value="Water Heater Statistics by State&amp;nbsp;" style="rounded=0;whiteSpace=wrap;html=1;fillColor=#99CCFF;strokeColor=#6c8ebf;" vertex="1" parent="WIyWlLk6GJQsqaUBKTNV-1">
          <mxGeometry x="-150" y="610" width="120" height="60" as="geometry" />
        </mxCell>
        <mxCell id="frL50fu5-paKjQ-43x_j-45" value="Water Heater Statistics by State Search" style="ellipse;whiteSpace=wrap;html=1;strokeColor=#99CCFF;strokeWidth=3;" vertex="1" parent="WIyWlLk6GJQsqaUBKTNV-1">
          <mxGeometry x="40" y="440" width="120" height="70" as="geometry" />
        </mxCell>
        <mxCell id="frL50fu5-paKjQ-43x_j-46" value="" style="endArrow=classic;html=1;rounded=0;fillColor=#ffe6cc;strokeColor=#d79b00;strokeWidth=2;exitX=0.066;exitY=0.929;exitDx=0;exitDy=0;exitPerimeter=0;" edge="1" parent="WIyWlLk6GJQsqaUBKTNV-1" source="frL50fu5-paKjQ-43x_j-0" target="frL50fu5-paKjQ-43x_j-45">
          <mxGeometry width="50" height="50" relative="1" as="geometry">
            <mxPoint x="230" y="340" as="sourcePoint" />
            <mxPoint x="130" y="390" as="targetPoint" />
          </mxGeometry>
        </mxCell>
        <mxCell id="frL50fu5-paKjQ-43x_j-50" value="Off-the-Grid Household Dashboard" style="rounded=0;whiteSpace=wrap;html=1;fillColor=#99CCFF;strokeColor=#6c8ebf;" vertex="1" parent="WIyWlLk6GJQsqaUBKTNV-1">
          <mxGeometry x="-280" y="430" width="120" height="60" as="geometry" />
        </mxCell>
        <mxCell id="frL50fu5-paKjQ-43x_j-51" value="Water Heater Statistics by State Search" style="ellipse;whiteSpace=wrap;html=1;strokeColor=#99CCFF;strokeWidth=3;" vertex="1" parent="WIyWlLk6GJQsqaUBKTNV-1">
          <mxGeometry x="-10" y="320" width="120" height="70" as="geometry" />
        </mxCell>
        <mxCell id="frL50fu5-paKjQ-43x_j-52" value="" style="endArrow=classic;html=1;rounded=0;fillColor=#ffe6cc;strokeColor=#d79b00;strokeWidth=2;" edge="1" parent="WIyWlLk6GJQsqaUBKTNV-1" source="frL50fu5-paKjQ-43x_j-0" target="frL50fu5-paKjQ-43x_j-51">
          <mxGeometry width="50" height="50" relative="1" as="geometry">
            <mxPoint x="236" y="322" as="sourcePoint" />
            <mxPoint x="110" y="390" as="targetPoint" />
          </mxGeometry>
        </mxCell>
        <mxCell id="frL50fu5-paKjQ-43x_j-53" value="" style="endArrow=classic;html=1;rounded=0;fillColor=#ffe6cc;strokeColor=#d79b00;strokeWidth=2;" edge="1" parent="WIyWlLk6GJQsqaUBKTNV-1" source="frL50fu5-paKjQ-43x_j-51" target="frL50fu5-paKjQ-43x_j-50">
          <mxGeometry width="50" height="50" relative="1" as="geometry">
            <mxPoint x="66" y="322" as="sourcePoint" />
            <mxPoint x="-60" y="390" as="targetPoint" />
          </mxGeometry>
        </mxCell>
        <mxCell id="frL50fu5-paKjQ-43x_j-54" value="Household Averages by Radius Result" style="rounded=0;whiteSpace=wrap;html=1;fillColor=#99CCFF;strokeColor=#6c8ebf;" vertex="1" parent="WIyWlLk6GJQsqaUBKTNV-1">
          <mxGeometry x="-60" width="120" height="60" as="geometry" />
        </mxCell>
        <mxCell id="frL50fu5-paKjQ-43x_j-55" value="Water Heater Statistics by State Search" style="ellipse;whiteSpace=wrap;html=1;strokeColor=#99CCFF;strokeWidth=3;" vertex="1" parent="WIyWlLk6GJQsqaUBKTNV-1">
          <mxGeometry x="70" y="180" width="120" height="70" as="geometry" />
        </mxCell>
        <mxCell id="frL50fu5-paKjQ-43x_j-56" value="" style="endArrow=classic;startArrow=classic;html=1;rounded=0;strokeWidth=2;strokeColor=#d79b00;fillColor=#ffe6cc;" edge="1" parent="WIyWlLk6GJQsqaUBKTNV-1" source="frL50fu5-paKjQ-43x_j-55" target="frL50fu5-paKjQ-43x_j-54">
          <mxGeometry width="50" height="50" relative="1" as="geometry">
            <mxPoint x="30" y="190" as="sourcePoint" />
            <mxPoint x="-84" y="130" as="targetPoint" />
          </mxGeometry>
        </mxCell>
        <mxCell id="frL50fu5-paKjQ-43x_j-63" value="" style="endArrow=classic;startArrow=classic;html=1;rounded=0;strokeWidth=2;strokeColor=#d79b00;fillColor=#ffe6cc;" edge="1" parent="WIyWlLk6GJQsqaUBKTNV-1" source="frL50fu5-paKjQ-43x_j-12" target="frL50fu5-paKjQ-43x_j-13">
          <mxGeometry width="50" height="50" relative="1" as="geometry">
            <mxPoint x="710" y="240" as="sourcePoint" />
            <mxPoint x="638" y="118" as="targetPoint" />
          </mxGeometry>
        </mxCell>
        <mxCell id="frL50fu5-paKjQ-43x_j-64" value="" style="endArrow=classic;startArrow=classic;html=1;rounded=0;strokeWidth=2;strokeColor=#d79b00;fillColor=#ffe6cc;entryX=0;entryY=1;entryDx=0;entryDy=0;exitX=1;exitY=0;exitDx=0;exitDy=15;exitPerimeter=0;" edge="1" parent="WIyWlLk6GJQsqaUBKTNV-1" source="frL50fu5-paKjQ-43x_j-0" target="frL50fu5-paKjQ-43x_j-13">
          <mxGeometry width="50" height="50" relative="1" as="geometry">
            <mxPoint x="580" y="452" as="sourcePoint" />
            <mxPoint x="508" y="330" as="targetPoint" />
          </mxGeometry>
        </mxCell>
        <mxCell id="frL50fu5-paKjQ-43x_j-65" value="" style="endArrow=classic;startArrow=classic;html=1;rounded=0;strokeWidth=2;strokeColor=#d79b00;fillColor=#ffe6cc;exitX=0;exitY=0.5;exitDx=0;exitDy=0;" edge="1" parent="WIyWlLk6GJQsqaUBKTNV-1" source="frL50fu5-paKjQ-43x_j-26">
          <mxGeometry width="50" height="50" relative="1" as="geometry">
            <mxPoint x="486" y="502" as="sourcePoint" />
            <mxPoint x="410" y="380" as="targetPoint" />
          </mxGeometry>
        </mxCell>
        <mxCell id="frL50fu5-paKjQ-43x_j-66" value="" style="endArrow=classic;startArrow=classic;html=1;rounded=0;strokeWidth=2;strokeColor=#d79b00;fillColor=#ffe6cc;exitX=0;exitY=0.5;exitDx=0;exitDy=0;" edge="1" parent="WIyWlLk6GJQsqaUBKTNV-1" source="frL50fu5-paKjQ-43x_j-25" target="frL50fu5-paKjQ-43x_j-26">
          <mxGeometry width="50" height="50" relative="1" as="geometry">
            <mxPoint x="752" y="582" as="sourcePoint" />
            <mxPoint x="680" y="460" as="targetPoint" />
          </mxGeometry>
        </mxCell>
        <mxCell id="frL50fu5-paKjQ-43x_j-67" value="" style="endArrow=classic;html=1;rounded=0;fillColor=#ffe6cc;strokeColor=#d79b00;strokeWidth=2;exitX=0;exitY=0;exitDx=0;exitDy=15;exitPerimeter=0;" edge="1" parent="WIyWlLk6GJQsqaUBKTNV-1" source="frL50fu5-paKjQ-43x_j-0" target="frL50fu5-paKjQ-43x_j-55">
          <mxGeometry width="50" height="50" relative="1" as="geometry">
            <mxPoint x="300" y="276" as="sourcePoint" />
            <mxPoint x="150" y="284" as="targetPoint" />
          </mxGeometry>
        </mxCell>
        <mxCell id="frL50fu5-paKjQ-43x_j-68" value="" style="endArrow=classic;startArrow=classic;html=1;rounded=0;strokeWidth=2;strokeColor=#d79b00;fillColor=#ffe6cc;exitX=0.578;exitY=0.013;exitDx=0;exitDy=0;exitPerimeter=0;" edge="1" parent="WIyWlLk6GJQsqaUBKTNV-1" source="frL50fu5-paKjQ-43x_j-4">
          <mxGeometry width="50" height="50" relative="1" as="geometry">
            <mxPoint x="380" y="113" as="sourcePoint" />
            <mxPoint x="294" y="-10" as="targetPoint" />
          </mxGeometry>
        </mxCell>
        <mxCell id="frL50fu5-paKjQ-43x_j-69" value="" style="endArrow=classic;startArrow=classic;html=1;rounded=0;strokeWidth=2;strokeColor=#d79b00;fillColor=#ffe6cc;entryX=0.589;entryY=1.061;entryDx=0;entryDy=0;entryPerimeter=0;" edge="1" parent="WIyWlLk6GJQsqaUBKTNV-1" source="frL50fu5-paKjQ-43x_j-0" target="frL50fu5-paKjQ-43x_j-4">
          <mxGeometry width="50" height="50" relative="1" as="geometry">
            <mxPoint x="380" y="303" as="sourcePoint" />
            <mxPoint x="294" y="180" as="targetPoint" />
          </mxGeometry>
        </mxCell>
        <mxCell id="frL50fu5-paKjQ-43x_j-70" value="" style="endArrow=classic;startArrow=classic;html=1;rounded=0;strokeWidth=2;strokeColor=#d79b00;fillColor=#ffe6cc;exitX=0.717;exitY=0.013;exitDx=0;exitDy=0;exitPerimeter=0;" edge="1" parent="WIyWlLk6GJQsqaUBKTNV-1" source="frL50fu5-paKjQ-43x_j-0" target="frL50fu5-paKjQ-43x_j-8">
          <mxGeometry width="50" height="50" relative="1" as="geometry">
            <mxPoint x="461" y="276" as="sourcePoint" />
            <mxPoint x="430" y="180" as="targetPoint" />
          </mxGeometry>
        </mxCell>
        <mxCell id="frL50fu5-paKjQ-43x_j-71" value="" style="endArrow=classic;startArrow=classic;html=1;rounded=0;strokeWidth=2;strokeColor=#d79b00;fillColor=#ffe6cc;exitX=0.715;exitY=0.074;exitDx=0;exitDy=0;exitPerimeter=0;" edge="1" parent="WIyWlLk6GJQsqaUBKTNV-1" source="frL50fu5-paKjQ-43x_j-8" target="frL50fu5-paKjQ-43x_j-7">
          <mxGeometry width="50" height="50" relative="1" as="geometry">
            <mxPoint x="570.5" y="120" as="sourcePoint" />
            <mxPoint x="549.5" y="24" as="targetPoint" />
          </mxGeometry>
        </mxCell>
        <mxCell id="frL50fu5-paKjQ-43x_j-72" value="" style="endArrow=classic;startArrow=classic;html=1;rounded=0;strokeWidth=2;strokeColor=#d79b00;fillColor=#ffe6cc;exitX=1;exitY=0.5;exitDx=0;exitDy=0;exitPerimeter=0;" edge="1" parent="WIyWlLk6GJQsqaUBKTNV-1" source="frL50fu5-paKjQ-43x_j-0" target="frL50fu5-paKjQ-43x_j-18">
          <mxGeometry width="50" height="50" relative="1" as="geometry">
            <mxPoint x="356" y="320" as="sourcePoint" />
            <mxPoint x="335" y="224" as="targetPoint" />
          </mxGeometry>
        </mxCell>
        <mxCell id="frL50fu5-paKjQ-43x_j-73" value="" style="endArrow=classic;startArrow=classic;html=1;rounded=0;strokeWidth=2;strokeColor=#d79b00;fillColor=#ffe6cc;" edge="1" parent="WIyWlLk6GJQsqaUBKTNV-1" source="frL50fu5-paKjQ-43x_j-18" target="frL50fu5-paKjQ-43x_j-17">
          <mxGeometry width="50" height="50" relative="1" as="geometry">
            <mxPoint x="366" y="330" as="sourcePoint" />
            <mxPoint x="345" y="234" as="targetPoint" />
          </mxGeometry>
        </mxCell>
        <mxCell id="frL50fu5-paKjQ-43x_j-74" value="" style="endArrow=classic;startArrow=classic;html=1;rounded=0;strokeWidth=2;strokeColor=#d79b00;fillColor=#ffe6cc;entryX=0;entryY=0.25;entryDx=0;entryDy=0;" edge="1" parent="WIyWlLk6GJQsqaUBKTNV-1" source="frL50fu5-paKjQ-43x_j-29" target="frL50fu5-paKjQ-43x_j-30">
          <mxGeometry width="50" height="50" relative="1" as="geometry">
            <mxPoint x="376" y="340" as="sourcePoint" />
            <mxPoint x="355" y="244" as="targetPoint" />
          </mxGeometry>
        </mxCell>
        <mxCell id="frL50fu5-paKjQ-43x_j-75" value="" style="endArrow=classic;startArrow=classic;html=1;rounded=0;strokeWidth=2;strokeColor=#d79b00;fillColor=#ffe6cc;" edge="1" parent="WIyWlLk6GJQsqaUBKTNV-1" source="frL50fu5-paKjQ-43x_j-43" target="frL50fu5-paKjQ-43x_j-45">
          <mxGeometry width="50" height="50" relative="1" as="geometry">
            <mxPoint x="386" y="350" as="sourcePoint" />
            <mxPoint x="365" y="254" as="targetPoint" />
          </mxGeometry>
        </mxCell>
      </root>
    </mxGraphModel>
  </diagram>
</mxfile>
